<svg xmlns="http://www.w3.org/2000/svg" width="153" height="176" viewBox="0 0 153 176" fill="none">
  <path d="M147.276 111.106C147.276 111.106 157.702 94.3637 149.635 86.1159C141.569 77.8682 133.717 96.396 133.717 96.396L128 106.859L137.816 125.408C137.806 125.408 144.743 116.042 147.276 111.106Z" fill="#EFEFEF"/>
  <path d="M5.4207 116.302C5.4207 116.302 -5.00537 133.045 3.06094 141.292C11.1272 149.54 18.9798 131.012 18.9798 131.012L24.6964 120.549L14.8805 102C14.8906 102 7.95347 111.366 5.4207 116.302Z" fill="white"/>
  <path d="M37.2412 175.433L29.3784 175.433C25.5334 175.433 22.4106 172.131 22.4106 168.067L22.4106 160.443L44.2089 160.443L44.2089 168.067C44.2089 172.131 41.0964 175.433 37.2412 175.433Z" fill="white"/>
  <path d="M126.451 175.435L118.782 175.435C115.028 175.435 111.977 172.22 111.977 168.241L111.977 160.445L133.256 160.445L133.256 168.241C133.246 172.209 130.205 175.435 126.451 175.435Z" fill="#EFEFEF"/>
  <path d="M50.4784 33.4593C67.4756 28.2977 85.49 28.2762 102.497 33.3839L102.65 33.427C117.816 37.9863 129.555 50.7504 133.359 66.934C136.929 82.1176 140.51 130.97 140.51 145.454C140.51 145.454 142.29 175.424 76.62 175.424C10.9504 175.424 12.9238 145.454 12.9238 145.454C12.9238 145.454 12.9238 124.55 13.4324 115.485C14.1342 102.958 15.8228 84.3975 19.8305 67.0956C22.1802 56.966 27.6323 48.1591 35.0985 41.8469C39.5843 38.0725 44.7923 35.1906 50.4784 33.4593Z" fill="#F2F2F2"/>
  <path d="M50.4784 33.4593C67.4756 28.2977 85.49 28.2762 102.497 33.3839L102.65 33.427C117.816 37.9863 129.555 50.7504 133.359 66.934C136.929 82.1176 140.51 130.97 140.51 145.454C140.51 145.454 142.29 175.424 76.62 175.424C10.9504 175.424 12.9238 145.454 12.9238 145.454C12.9238 145.454 12.9238 124.55 13.4324 115.485C14.1342 102.958 15.8228 84.3975 19.8305 67.0956C22.1802 56.966 27.6323 48.1591 35.0985 41.8469C39.5843 38.0725 44.7923 35.1906 50.4784 33.4593Z" fill="white"/>
  <path d="M54.5473 103.86L42.2901 103.86C39.798 103.86 37.7534 101.699 37.7534 99.064L37.7534 93.6551C37.7534 91.0206 39.798 88.8592 42.2901 88.8592L54.5473 88.8592C57.0394 88.8592 59.0839 91.0205 59.0839 93.6551L59.0839 99.0639C59.0839 101.709 57.0394 103.86 54.5473 103.86Z" fill="#FFD2D2"/>
  <path d="M129.757 103.86L117.5 103.86C115.007 103.86 112.963 101.698 112.963 99.0638L112.963 93.6549C112.963 91.0204 115.007 88.859 117.5 88.859L129.757 88.859C132.249 88.859 134.293 91.0204 134.293 93.6549L134.293 99.0638C134.293 101.709 132.249 103.86 129.757 103.86Z" fill="#FFD2D2"/>
  <path d="M114.55 85.4775C118.448 85.4774 121.609 82.1362 121.609 78.0147C121.609 73.8931 118.448 70.5519 114.55 70.5519C110.651 70.5519 107.49 73.8931 107.49 78.0147C107.49 82.1363 110.651 85.4775 114.55 85.4775Z" fill="black"/>
  <path d="M57.82 85.479C61.7188 85.479 64.8794 82.1378 64.8794 78.0162C64.8794 73.8946 61.7188 70.5534 57.8201 70.5535C53.9213 70.5535 50.7607 73.8947 50.7607 78.0162C50.7607 82.1378 53.9213 85.479 57.82 85.479Z" fill="black"/>
  <path d="M109.162 0.00238477C98.0845 0.00241815 92.4798 20.7777 90.4759 30.4126C89.9266 33.0687 91.4931 35.714 93.9852 36.3699L108.216 40.112C108.602 40.2088 108.989 40.2626 109.375 40.2626C111.328 40.2625 113.129 38.9937 113.841 36.9828C117.411 26.9608 124.684 2.23901 110.535 0.0991559C110.077 0.0453911 109.619 0.00238339 109.162 0.00238477Z" fill="white"/>
  <path d="M107.808 34.4561C107.664 34.4561 107.52 34.4337 107.383 34.3962L98.2326 31.7888C97.3169 31.5265 96.7348 30.4625 96.9375 29.4136C97.8401 24.7156 101.274 9.40044 107.677 9.40042C107.906 9.40042 108.142 9.4229 108.377 9.46036C109.894 9.70762 110.967 10.4794 111.654 11.8131C113.498 15.3796 112.674 23.3519 109.456 33.1449C109.201 33.9241 108.534 34.4561 107.808 34.4561Z" fill="#FFD2D2"/>
  <path d="M45.0791 5.66324e-05C56.1562 2.32559e-05 61.7609 20.7753 63.7648 30.4102C64.3141 33.0662 62.7476 35.7115 60.2555 36.3675L46.0251 40.1097C45.6385 40.2065 45.252 40.2602 44.8654 40.2602C42.9124 40.2602 41.112 38.9913 40.4 36.9805C36.8297 26.9585 29.5568 2.23678 43.7059 0.0968361C44.1636 0.0430684 44.6213 5.80116e-05 45.0791 5.66324e-05Z" fill="white"/>
  <path d="M46.4334 34.4503C46.5773 34.4503 46.7212 34.4278 46.8586 34.3903L56.0089 31.7828C56.9246 31.5206 57.5067 30.4566 57.3039 29.4076C56.4013 24.7097 52.9675 9.39454 46.5642 9.39456C46.3353 9.39457 46.0999 9.41705 45.8644 9.45451C44.347 9.70178 43.2743 10.4735 42.5876 11.8072C40.7431 15.3738 41.5672 23.3461 44.7852 33.1391C45.0403 33.9183 45.7074 34.4503 46.4334 34.4503Z" fill="#FFD2D2"/>
  <path d="M105.467 168.88L66.9154 168.88C58.0353 168.88 50.7625 161.203 50.7625 151.804L50.7625 132.545C50.7625 123.158 58.0252 115.469 66.9154 115.469L105.467 115.469C114.347 115.469 121.62 123.147 121.62 132.545L121.62 151.804C121.61 161.202 114.347 168.88 105.467 168.88Z" fill="#F4F4F4"/>
  <path d="M86.1292 152.943L93.2087 160.438" stroke="#FFD2D2" stroke-width="4.34508" stroke-miterlimit="10" stroke-linecap="round"/>
  <path d="M93.2087 152.943L86.1292 160.438" stroke="#FFD2D2" stroke-width="4.34508" stroke-miterlimit="10" stroke-linecap="round"/>
  <path d="M81.6108 81.8777L88.9651 85.8349L96.9399 81.6519" stroke="#FFD2D2" stroke-width="5.79345" stroke-miterlimit="10" stroke-linecap="round"/>
  <path d="M88.9679 85.8378L88.9679 91.0316C88.9679 91.0316 88.9679 95.8491 84.2278 95.8491C82.6613 95.8491 81.5526 95.3222 80.7795 94.6125" stroke="#FFD2D2" stroke-width="5.79345" stroke-miterlimit="10" stroke-linecap="round"/>
  <path d="M88.9678 91.0271C88.9678 91.0271 89.0491 95.8446 94.0435 95.8445C95.6914 95.8445 96.8001 95.3176 97.5325 94.6187" stroke="#FFD2D2" stroke-width="5.79345" stroke-miterlimit="10" stroke-linecap="round"/>
</svg>