<svg xmlns="http://www.w3.org/2000/svg" width="60" height="60" viewBox="0 0 60 60" fill="none">
  <g clip-path="url(#clip0_453_9435)">
    <path d="M56.9748 37.5559C56.9748 37.5559 60.9854 43.6329 57.881 46.5864C54.7767 49.5398 51.758 42.8733 51.758 42.8733L49.5537 39.0934L53.3316 32.4087C54.6449 34.0534 55.8613 35.772 56.9748 37.5559Z" fill="#EFD565"/>
    <path d="M20.2785 55.9321L8.85903 55.9321C7.98657 55.9321 7.2793 56.6327 7.2793 57.497C7.2793 58.3612 7.98657 59.0618 8.85904 59.0618L20.2785 59.0618C21.1509 59.0618 21.8582 58.3612 21.8582 57.497C21.8582 56.6327 21.1509 55.9321 20.2785 55.9321Z" fill="#FFBB4D"/>
    <path d="M52.7313 55.9326L41.6364 55.9326C40.7639 55.9326 40.0566 56.6332 40.0566 57.4974C40.0566 58.3617 40.7639 59.0623 41.6364 59.0623L52.7313 59.0623C53.6037 59.0623 54.311 58.3617 54.311 57.4974C54.311 56.6332 53.6037 55.9326 52.7313 55.9326Z" fill="#FFBB4D"/>
    <path d="M19.7217 7.76729C26.2626 5.9109 33.1969 5.9109 39.7378 7.76729L39.7991 7.76729C42.668 8.57443 45.2714 10.1188 47.3464 12.2443C49.4213 14.3699 50.8943 17.0013 51.6165 19.8727C52.9881 25.342 54.3719 43.014 54.3719 48.2463C54.3719 48.2463 55.0577 59.0755 29.7819 59.0755C4.50611 59.0755 5.28984 48.2463 5.28984 48.2463C5.28984 48.2463 5.28979 40.6926 5.48573 37.417C5.79535 31.5303 6.61477 25.6808 7.93491 19.9335C8.64675 17.0557 10.1124 14.4159 12.1834 12.2814C14.2545 10.147 16.8572 8.59388 19.7278 7.77944L19.7217 7.76729Z" fill="#F2F2F2"/>
    <path d="M19.7217 7.76729C26.2626 5.9109 33.1969 5.9109 39.7378 7.76729L39.7991 7.76729C42.668 8.57443 45.2714 10.1188 47.3464 12.2443C49.4213 14.3699 50.8943 17.0013 51.6165 19.8727C52.9881 25.342 54.3719 43.014 54.3719 48.2463C54.3719 48.2463 55.0577 59.0755 29.7819 59.0755C4.50611 59.0755 5.28984 48.2463 5.28984 48.2463C5.28984 48.2463 5.28979 40.6926 5.48573 37.417C5.79535 31.5303 6.61477 25.6808 7.93491 19.9335C8.64675 17.0557 10.1124 14.4159 12.1834 12.2814C14.2545 10.147 16.8572 8.59388 19.7278 7.77944L19.7217 7.76729Z" fill="#FFE36C"/>
    <path d="M44.3795 26.562C45.881 26.562 47.0981 25.354 47.0981 23.8638C47.0981 22.3736 45.881 21.1656 44.3795 21.1656C42.8781 21.1656 41.6609 22.3736 41.6609 23.8638C41.6609 25.354 42.8781 26.562 44.3795 26.562Z" fill="black"/>
    <path d="M22.5507 26.5624C24.0521 26.5624 25.2693 25.3544 25.2693 23.8642C25.2693 22.374 24.0521 21.166 22.5506 21.166C21.0492 21.166 19.832 22.374 19.832 23.8642C19.832 25.3544 21.0492 26.5624 22.5507 26.5624Z" fill="black"/>
    <path d="M2.0755 38.8444C2.0755 38.8444 -1.92896 44.9215 1.18153 47.881C4.29203 50.8405 7.30454 44.1558 7.30454 44.1558L9.49659 40.3698L5.70643 33.6851C4.39662 35.3337 3.18428 37.0564 2.0755 38.8444Z" fill="#FFE36C"/>
    <path d="M36.168 54.2552C36.0875 54.2556 36.0076 54.2403 35.933 54.2101C35.8584 54.1798 35.7905 54.1353 35.7333 54.0789L33.0085 51.3443C32.9082 51.228 32.8558 51.0785 32.8618 50.9256C32.8677 50.7726 32.9316 50.6275 33.0406 50.5193C33.1497 50.4111 33.2959 50.3477 33.45 50.3418C33.6041 50.3359 33.7548 50.3879 33.8719 50.4874L36.6027 53.1917C36.6601 53.2482 36.7057 53.3154 36.7368 53.3895C36.7679 53.4635 36.7839 53.5429 36.7839 53.6232C36.7839 53.7034 36.7679 53.7828 36.7368 53.8569C36.7057 53.9309 36.6601 53.9981 36.6028 54.0546C36.5476 54.1154 36.4807 54.1644 36.406 54.1989C36.3313 54.2334 36.2504 54.2525 36.168 54.2552Z" fill="#FFBB4D"/>
    <path d="M33.443 54.2552C33.3214 54.2559 33.2023 54.2207 33.101 54.1539C32.9996 54.0872 32.9206 53.9921 32.8739 53.8806C32.8273 53.7691 32.8152 53.6464 32.8391 53.528C32.863 53.4097 32.9219 53.3011 33.0083 53.2161L35.733 50.5118C35.7899 50.4548 35.8577 50.4096 35.9323 50.3788C36.0069 50.3479 36.0869 50.332 36.1678 50.332C36.2486 50.332 36.3286 50.3479 36.4032 50.3788C36.4778 50.4096 36.5455 50.4548 36.6025 50.5118C36.7165 50.6257 36.7805 50.7797 36.7805 50.9402C36.7805 51.1008 36.7165 51.2548 36.6025 51.3687L33.8716 54.079C33.7576 54.1913 33.6036 54.2546 33.443 54.2552Z" fill="#FFBB4D"/>
    <path d="M18.7849 35.6291C21.1115 35.6291 22.9975 33.7572 22.9975 31.4481C22.9975 29.139 21.1115 27.2671 18.7849 27.2671C16.4583 27.2671 14.5723 29.139 14.5723 31.4481C14.5723 33.7572 16.4583 35.6291 18.7849 35.6291Z" fill="#FFA052"/>
    <path d="M47.9607 35.6291C50.2873 35.6291 52.1733 33.7572 52.1733 31.4481C52.1733 29.139 50.2873 27.2671 47.9607 27.2671C45.6341 27.2671 43.748 29.139 43.7481 31.4481C43.7481 33.7572 45.6341 35.6291 47.9607 35.6291Z" fill="#FFA052"/>
    <path d="M37.5521 31.3813L30.8167 31.3813C29.8943 31.3781 29.0106 31.0125 28.3589 30.3646C27.7072 29.7166 27.3405 28.839 27.3389 27.9234C27.3389 26.0274 32.274 24.7573 34.1905 24.7573C36.1009 24.7573 41.036 26.0274 41.036 27.9234C41.0344 28.84 40.6669 29.7186 40.0139 30.3667C39.3608 31.0149 38.4756 31.3797 37.5521 31.3813Z" fill="#FFBB4D"/>
    <path d="M28.9551 6.37416C28.9551 6.37416 29.2123 2.60033 31.5696 0.126988C31.6258 0.0688987 31.6974 0.0278163 31.7761 0.00851001C31.8548 -0.0107963 31.9375 -0.00753427 32.0145 0.0179219C32.0914 0.0433781 32.1595 0.0899774 32.2108 0.152312C32.2621 0.214648 32.2946 0.290156 32.3044 0.370065C32.5545 2.1399 33.103 3.85531 33.927 5.44438C34.1804 5.83663 34.5152 6.17071 34.909 6.42432C35.3029 6.67792 35.7467 6.84521 36.2109 6.91501" fill="#FFE36C"/>
    <path d="M33.2775 6.53932C31.4152 5.22633 29.8595 3.53094 28.7159 1.56831C28.677 1.49658 28.6183 1.43741 28.5466 1.39784C28.4749 1.35827 28.3932 1.33996 28.3114 1.34508C28.2295 1.3502 28.1508 1.37854 28.0847 1.42673C28.0185 1.47492 27.9677 1.54093 27.9383 1.61693C27.649 2.60518 27.4905 3.62659 27.4668 4.65544C27.4383 5.14355 27.2393 5.60655 26.9041 5.96479C26.5688 6.32304 26.1183 6.55413 25.6299 6.61831" fill="#FFE36C"/>
  </g>
  <defs>
    <clipPath id="clip0_453_9435">
      <rect width="59.0626" height="59.0625" fill="white" transform="matrix(1 0 1.3642e-06 1 0 0)"/>
    </clipPath>
  </defs>
</svg>