<svg xmlns="http://www.w3.org/2000/svg" width="156" height="162" viewBox="0 0 156 162" fill="none">
  <path d="M144.409 67.3142C144.409 67.3142 189.727 129.693 98.8249 156.889C21.5697 180.003 20.106 112.557 20.106 112.557C15.277 110.462 11.0179 107.248 7.68108 103.181C4.34422 99.1142 2.02539 94.3115 0.916408 89.17C-0.192586 84.0285 -0.0598839 78.6959 1.30353 73.6133C2.66694 68.5307 5.22189 63.844 8.75708 59.941C5.3321 55.1378 3.84865 49.219 4.60293 43.3669C5.35722 37.5147 8.29372 32.16 12.826 28.3721C17.3583 24.5841 23.1528 22.6419 29.052 22.9332C34.9513 23.2245 40.5212 25.728 44.6492 29.9436L67.5795 21.5977C68.0086 16.2607 70.2532 11.2293 73.9401 7.3396C77.6271 3.44988 82.5344 0.936092 87.8465 0.215962C93.1586 -0.504167 98.5557 0.612742 103.141 3.38108C107.726 6.14943 111.223 10.4025 113.051 15.4334C113.514 16.7495 113.856 18.1049 114.072 19.4831C119.777 19.3715 125.412 20.7311 130.434 23.4304C135.457 26.1298 139.696 30.0777 142.742 34.8929C145.788 39.7081 147.54 45.2279 147.826 50.9191C148.112 56.6103 146.924 62.2805 144.377 67.3822L144.409 67.3142Z" fill="#49B236"/>
</svg>