<svg width="213" height="163" viewBox="0 0 213 163" fill="none" xmlns="http://www.w3.org/2000/svg">
<rect width="213" height="163" fill="#F5F5F5"/>
<g id="About - Desktop" clip-path="url(#clip0_51_3365)" filter="url(#filter0_d_51_3365)">
<rect width="1440" height="4498" transform="translate(-988 -1923)" fill="white"/>
<g id="Section 3">
<rect id="Rectangle 1282" x="-988" y="-355" width="1439" height="678" fill="white"/>
<g id="Value cards">
<g id="character card web - bunny">
<g clip-path="url(#clip1_51_3365)">
<rect id="Rectangle 629" x="-65" y="-179" width="342" height="342" fill="#FFC5AB"/>
<g id="bunny" clip-path="url(#clip2_51_3365)">
<path id="Vector" d="M205.124 154.45C205.124 154.45 219.563 176.452 208.386 187.144C197.21 197.837 186.342 173.701 186.342 173.701L178.406 160.017L192.007 135.815C196.735 141.769 201.115 147.991 205.124 154.45Z" fill="#EFEFEF"/>
<path id="Vector_2" d="M71.0044 46.5993C94.5611 39.8777 119.533 39.8777 143.09 46.5993H143.288C153.62 49.5154 162.997 55.1046 170.468 62.8009C177.94 70.4972 183.241 80.0273 185.834 90.4262C190.794 110.227 195.754 174.208 195.754 193.151C195.754 193.151 198.223 232.358 107.224 232.358C16.2238 232.358 19.0455 193.151 19.0455 193.151C19.0455 193.151 19.0455 165.803 19.773 153.944C20.8757 132.63 23.826 111.452 28.5908 90.6462C31.1619 80.2313 36.4417 70.6782 43.8966 62.952C51.3516 55.2257 60.7176 49.6001 71.0486 46.6433L71.0044 46.5993Z" fill="#F2F2F2"/>
<path id="Vector_3" d="M71.0044 46.5993C94.5611 39.8777 119.533 39.8777 143.09 46.5993H143.288C153.62 49.5154 162.997 55.1046 170.468 62.8009C177.94 70.4972 183.241 80.0273 185.834 90.4262C190.794 110.227 195.754 174.208 195.754 193.151C195.754 193.151 198.223 232.358 107.224 232.358C16.2238 232.358 19.0455 193.151 19.0455 193.151C19.0455 193.151 19.0455 165.803 19.773 153.944C20.8757 132.63 23.826 111.452 28.5908 90.6462C31.1619 80.2313 36.4417 70.6782 43.8966 62.952C51.3516 55.2257 60.7176 49.6001 71.0486 46.6433L71.0044 46.5993Z" fill="white"/>
<path id="Vector_4" d="M73.0768 119.051H63.1788C57.7488 119.051 53.3469 123.444 53.3469 128.863V128.885C53.3469 134.305 57.7488 138.698 63.1788 138.698H73.0768C78.5068 138.698 82.9086 134.305 82.9086 128.885V128.863C82.9086 123.444 78.5068 119.051 73.0768 119.051Z" fill="#FFD2D2"/>
<path id="Vector_5" d="M177.304 119.051H167.406C161.976 119.051 157.574 123.444 157.574 128.863V128.885C157.574 134.305 161.976 138.698 167.406 138.698H177.304C182.734 138.698 187.136 134.305 187.136 128.885V128.863C187.136 123.444 182.734 119.051 177.304 119.051Z" fill="#FFD2D2"/>
<path id="Vector_6" d="M159.778 114.649C165.184 114.649 169.566 110.276 169.566 104.881C169.566 99.4856 165.184 95.1121 159.778 95.1121C154.373 95.1121 149.991 99.4856 149.991 104.881C149.991 110.276 154.373 114.649 159.778 114.649Z" fill="black"/>
<path id="Vector_7" d="M81.1896 114.649C86.5953 114.649 90.9774 110.276 90.9774 104.881C90.9774 99.4856 86.5953 95.1121 81.1896 95.1121C75.784 95.1121 71.4019 99.4856 71.4019 104.881C71.4019 110.276 75.784 114.649 81.1896 114.649Z" fill="black"/>
<path id="Vector_8" d="M87.8909 49.5474C89.4151 49.142 90.7241 48.1657 91.5453 46.8215C92.3665 45.4774 92.6367 43.869 92.2998 42.331C89.6324 30.1862 81.9389 3.43238 66.5739 5.63252C48.4313 8.2287 57.7561 38.1507 62.3413 50.2955C62.904 51.6724 63.9356 52.807 65.2543 53.4993C66.573 54.1915 68.0943 54.3971 69.5499 54.0797L87.8909 49.5474Z" fill="#FFD2D2"/>
<path id="Vector_9" d="M68.2492 59.7343C65.8653 59.7388 63.5359 59.0222 61.5682 57.679C59.6005 56.3357 58.0869 54.4288 57.2269 52.2098C51.9362 38.1729 46.9762 19.2076 53.4573 8.20689C54.7634 6.01059 56.5619 4.1464 58.7115 2.76067C60.8611 1.37494 63.3033 0.505419 65.8464 0.220383C80.1312 -1.84775 91.4622 12.7172 97.7228 41.1651C98.3861 44.1158 97.8612 47.2084 96.2613 49.7765C94.6613 52.3446 92.1144 54.1824 89.1695 54.894L70.9166 59.4262C70.0428 59.6335 69.1474 59.7369 68.2492 59.7343ZM68.2492 11.0231C67.9483 11.0013 67.6463 11.0013 67.3454 11.0231C66.4482 11.0826 65.5786 11.3578 64.8109 11.8252C64.0432 12.2925 63.4002 12.9382 62.9365 13.7072C59.7621 19.0756 61.5257 32.3205 67.5438 48.2715C67.6233 48.392 67.7311 48.4911 67.858 48.5601C67.9848 48.6292 68.1268 48.6661 68.2713 48.6675L86.5021 44.1353C86.6544 44.0985 86.787 44.0052 86.873 43.8745C86.9589 43.7438 86.9918 43.5853 86.9651 43.4312C83.6584 28.3602 76.8025 11.0231 68.3374 11.0231H68.2492Z" fill="white"/>
<path id="Vector_10" d="M129.489 50.8458C127.959 50.4502 126.643 49.4758 125.82 48.1288C124.998 46.7819 124.732 45.1682 125.08 43.6294C127.748 31.4846 135.419 4.75279 150.806 6.93093C168.927 9.5271 159.624 39.4491 155.039 51.5939C154.511 52.9964 153.485 54.1565 152.156 54.8541C150.827 55.5517 149.288 55.7381 147.83 55.3781L129.489 50.8458Z" fill="#FFD2D2"/>
<path id="Vector_11" d="M149.219 61.0543C148.267 61.0552 147.319 60.9369 146.397 60.7022L128.166 56.1699C125.217 55.4632 122.665 53.6274 121.061 51.0588C119.456 48.4901 118.928 45.3948 119.591 42.441C125.874 13.9931 137.226 -0.549823 151.489 1.49631C154.03 1.77799 156.471 2.64635 158.617 4.03258C160.764 5.4188 162.558 7.28482 163.856 9.48285C170.359 20.4836 165.399 39.4708 160.109 53.4857C159.28 55.7026 157.793 57.6145 155.848 58.9667C153.902 60.3189 151.59 61.0471 149.219 61.0543ZM149.02 12.3211C140.533 12.3211 133.699 29.5922 130.349 44.8172C130.322 44.9655 130.352 45.1184 130.434 45.2451C130.516 45.3717 130.643 45.4626 130.79 45.4992L149.042 50.0315C149.188 50.0686 149.343 50.051 149.477 49.9821C149.611 49.9132 149.715 49.7977 149.77 49.6575C155.788 33.6844 157.53 20.4396 154.355 15.0932C153.9 14.3151 153.259 13.661 152.49 13.1889C151.721 12.7169 150.847 12.4415 149.946 12.3871C149.64 12.3409 149.33 12.3189 149.02 12.3211Z" fill="white"/>
<path id="Vector_12" d="M134.581 153.9H106.409C87.0749 153.9 71.4019 169.537 71.4019 188.827C71.4019 208.117 87.0749 223.755 106.409 223.755H134.581C153.915 223.755 169.588 208.117 169.588 188.827C169.588 169.537 153.915 153.9 134.581 153.9Z" fill="#F4F4F4"/>
<path id="Vector_13" d="M7.47229 159.114C7.47229 159.114 -6.94489 181.116 4.25374 191.83C15.4524 202.545 26.2983 178.344 26.2983 178.344L34.1903 164.637L20.5447 140.435C15.829 146.404 11.4642 152.641 7.47229 159.114Z" fill="white"/>
<path id="Vector_14" d="M124.331 117.575L113.132 111.965C112.873 111.834 112.642 111.653 112.453 111.432C112.264 111.212 112.121 110.956 112.031 110.68C111.849 110.123 111.896 109.517 112.162 108.995C112.428 108.473 112.891 108.077 113.449 107.896C114.007 107.714 114.615 107.761 115.138 108.027L124.353 112.713L134.405 107.719C134.931 107.459 135.539 107.419 136.095 107.606C136.651 107.794 137.11 108.195 137.37 108.72C137.63 109.245 137.671 109.852 137.482 110.407C137.294 110.962 136.893 111.419 136.367 111.679L124.331 117.575Z" fill="#FFD2D2"/>
<path id="Vector_15" d="M117.783 130.403C115.511 130.452 113.3 129.669 111.567 128.202C111.122 127.823 110.847 127.283 110.802 126.702C110.756 126.12 110.944 125.544 111.324 125.1C111.704 124.657 112.245 124.382 112.828 124.337C113.411 124.291 113.988 124.479 114.433 124.858C115.379 125.616 116.572 126 117.783 125.936C118.354 126.004 118.933 125.947 119.48 125.769C120.026 125.59 120.527 125.295 120.947 124.903C121.367 124.511 121.696 124.032 121.911 123.5C122.126 122.968 122.222 122.395 122.192 121.822V115.046C122.192 114.462 122.425 113.903 122.838 113.49C123.251 113.077 123.812 112.845 124.397 112.845C124.981 112.845 125.542 113.077 125.956 113.49C126.369 113.903 126.601 114.462 126.601 115.046V121.844C126.562 123.291 126.2 124.712 125.543 126.002C124.816 127.407 123.695 128.571 122.318 129.352C120.94 130.133 119.365 130.498 117.783 130.403Z" fill="#FFD2D2"/>
<path id="Vector_16" d="M131.384 130.402C130.217 130.461 129.05 130.288 127.95 129.893C126.851 129.498 125.841 128.889 124.979 128.1C124.118 127.312 123.422 126.361 122.932 125.302C122.442 124.243 122.168 123.097 122.126 121.932C122.126 121.348 122.358 120.789 122.771 120.376C123.185 119.964 123.746 119.732 124.33 119.732C124.915 119.732 125.476 119.964 125.889 120.376C126.302 120.789 126.535 121.348 126.535 121.932C126.541 122.536 126.677 123.131 126.932 123.679C127.188 124.226 127.558 124.713 128.017 125.107C128.476 125.5 129.013 125.791 129.594 125.961C130.175 126.131 130.785 126.175 131.384 126.09C132.595 126.173 133.792 125.796 134.735 125.034C134.951 124.84 135.203 124.691 135.476 124.595C135.75 124.498 136.039 124.456 136.329 124.472C136.619 124.487 136.903 124.559 137.164 124.684C137.426 124.809 137.661 124.984 137.855 125.199C138.048 125.414 138.198 125.666 138.295 125.939C138.391 126.211 138.433 126.501 138.418 126.79C138.403 127.079 138.33 127.362 138.205 127.623C138.08 127.885 137.905 128.119 137.689 128.312C135.929 129.781 133.675 130.528 131.384 130.402Z" fill="#FFD2D2"/>
</g>
</g>
</g>
</g>
</g>
</g>
<defs>
<filter id="filter0_d_51_3365" x="-1013" y="-1944" width="1490" height="4548" filterUnits="userSpaceOnUse" color-interpolation-filters="sRGB">
<feFlood flood-opacity="0" result="BackgroundImageFix"/>
<feColorMatrix in="SourceAlpha" type="matrix" values="0 0 0 0 0 0 0 0 0 0 0 0 0 0 0 0 0 0 127 0" result="hardAlpha"/>
<feOffset dy="4"/>
<feGaussianBlur stdDeviation="12.5"/>
<feComposite in2="hardAlpha" operator="out"/>
<feColorMatrix type="matrix" values="0 0 0 0 0 0 0 0 0 0 0 0 0 0 0 0 0 0 0.25 0"/>
<feBlend mode="normal" in2="BackgroundImageFix" result="effect1_dropShadow_51_3365"/>
<feBlend mode="normal" in="SourceGraphic" in2="effect1_dropShadow_51_3365" result="shape"/>
</filter>
<clipPath id="clip0_51_3365">
<rect width="1440" height="4498" fill="white" transform="translate(-988 -1923)"/>
</clipPath>
<clipPath id="clip1_51_3365">
<rect x="-65" y="-179" width="342" height="342" rx="10" fill="white"/>
</clipPath>
<clipPath id="clip2_51_3365">
<rect width="212.642" height="232.313" fill="white"/>
</clipPath>
</defs>
</svg>
