<svg width="212" height="130" viewBox="0 0 212 130" fill="none" xmlns="http://www.w3.org/2000/svg">
<g clip-path="url(#clip0_453_9742)">
<path d="M204.158 120.899C204.158 120.899 218.654 142.853 207.433 153.522C196.213 164.192 185.302 140.109 185.302 140.109L177.357 126.454L191.012 102.305C195.751 108.247 200.141 114.455 204.158 120.899Z" fill="#EFEFEF"/>
<path d="M149.937 33.6119C149.937 33.6119 189.131 3.00883 202.764 19.8251C218.432 39.1222 167.62 60.6145 167.62 60.6145L149.937 33.6119Z" fill="#FFCACA"/>
<path d="M191.034 23.6234C194.42 23.6234 195.46 24.8089 195.858 25.3796C196.289 25.7676 196.604 26.2659 196.768 26.8197C196.932 27.3735 196.939 27.9615 196.788 28.519C195.77 32.6023 186.917 41.5373 170.872 49.5283L162.02 35.9173C170.983 29.9899 183.199 23.6234 191.1 23.6234H191.034ZM191.1 14.842C174.126 14.842 150.003 33.678 150.003 33.678L167.708 60.6807C167.708 60.6807 218.609 39.1883 202.852 19.8913C201.428 18.2017 199.626 16.8653 197.59 15.9887C195.553 15.112 193.339 14.7194 191.122 14.842H191.1Z" fill="black"/>
<path d="M163.724 24.2378C167.706 18.5841 170.754 12.3368 172.754 5.7311C173.023 4.88269 173.026 3.97308 172.763 3.12273C172.5 2.27237 171.983 1.52136 171.28 0.969161C170.577 0.416963 169.721 0.0896306 168.826 0.0304745C167.932 -0.0286815 167.04 0.183134 166.269 0.637898C159.366 4.5481 153.03 9.37074 147.436 14.9735C137.543 25.6209 163.724 24.2378 163.724 24.2378Z" fill="#FFC145"/>
<path d="M155.27 193.301C148.91 194.914 142.448 196.102 135.928 196.857C125.956 198.055 115.918 198.627 105.874 198.57C97.1458 198.607 88.4215 198.19 79.7375 197.318C15.0708 190.732 17.2618 159.449 17.2618 159.449C17.2618 159.449 17.2617 132.161 17.9699 120.328C19.077 99.0603 22.0389 77.9281 26.8223 57.1678C29.4035 46.7757 34.704 37.2434 42.1882 29.5341C49.6723 21.8247 59.0751 16.2113 69.4466 13.261C84.5317 8.95746 100.271 7.36638 115.922 8.56297C124.708 9.22723 133.404 10.7643 141.881 13.1512H142.103C152.472 16.0671 161.882 21.6461 169.381 29.3246C176.881 37.0031 182.205 46.5092 184.815 56.8824C186.532 64.7474 187.817 72.6988 188.666 80.7018C192.074 107.792 194.752 145.706 194.752 159.536C194.752 159.471 196.213 182.631 155.27 193.301Z" fill="white"/>
<path d="M135.928 196.881C125.956 198.078 115.918 198.65 105.874 198.593C97.1458 198.631 88.4215 198.213 79.7375 197.342C15.0708 190.756 17.2618 159.472 17.2618 159.472C17.2618 159.472 17.2617 132.184 17.9699 120.351C17.9699 120.351 66.4589 114.621 76.4621 150.273C77.2819 153.352 78.5176 156.305 80.1358 159.055C93.525 181.469 125.017 163.555 135.707 196.09C135.802 196.347 135.876 196.612 135.928 196.881Z" fill="black"/>
<path d="M188.666 80.7012C168.46 71.2173 170.164 42.173 145.201 42.173C115.39 42.173 115.855 8.65015 115.855 8.65015C124.641 9.3144 133.338 10.8515 141.815 13.2384H142.036C152.405 16.1543 161.815 21.7333 169.315 29.4118C176.815 37.0903 182.138 46.5964 184.749 56.9696C186.484 64.8044 187.792 72.7265 188.666 80.7012Z" fill="black"/>
<path d="M158.634 81.1853C164.061 81.1853 168.46 76.8213 168.46 71.438C168.46 66.0547 164.061 61.6907 158.634 61.6907C153.207 61.6907 148.808 66.0547 148.808 71.438C148.808 76.8213 153.207 81.1853 158.634 81.1853Z" fill="black"/>
<path d="M79.7373 81.1853C85.1641 81.1853 89.5634 76.8213 89.5634 71.438C89.5634 66.0547 85.1641 61.6907 79.7373 61.6907C74.3104 61.6907 69.9111 66.0547 69.9111 71.438C69.9111 76.8213 74.3104 81.1853 79.7373 81.1853Z" fill="black"/>
<path d="M152.062 96.9695C152.062 85.1806 141.793 71.4377 119.131 71.4377C96.469 71.4377 86.5986 85.1806 86.5986 96.9695C86.5986 108.759 96.4912 114.115 119.131 114.115C141.771 114.115 152.062 108.737 152.062 96.9695Z" fill="#FFCACA"/>
<path d="M112.624 96.2237C114.494 96.2237 116.01 94.1891 116.01 91.6794C116.01 89.1696 114.494 87.135 112.624 87.135C110.754 87.135 109.238 89.1696 109.238 91.6794C109.238 94.1891 110.754 96.2237 112.624 96.2237Z" fill="black"/>
<path d="M132.342 96.2237C134.212 96.2237 135.728 94.1891 135.728 91.6794C135.728 89.1696 134.212 87.135 132.342 87.135C130.472 87.135 128.956 89.1696 128.956 91.6794C128.956 94.1891 130.472 96.2237 132.342 96.2237Z" fill="black"/>
<path d="M50.6797 27.4649C45.7147 20.8524 41.8035 13.5222 39.0831 5.7311C38.8136 4.88269 38.8102 3.97308 39.0734 3.12273C39.3366 2.27237 39.8539 1.52136 40.5569 0.969161C41.26 0.416963 42.1155 0.0896306 43.0103 0.0304745C43.905 -0.0286815 44.7968 0.183134 45.5674 0.637898C51.41 4.08458 56.1682 6.36774 61.546 12.1415C71.4385 22.8108 50.6797 27.4649 50.6797 27.4649Z" fill="#FFC145"/>
<path d="M52.5169 41.3387C53.7234 39.84 54.614 38.1161 55.1357 36.2693C55.6575 34.4225 55.7998 32.4905 55.5541 30.5881C55.3084 28.6857 54.6799 26.8517 53.7057 25.195C52.7316 23.5383 51.4317 22.0927 49.8833 20.944C37.999 12.1627 19.8073 1.75678 10.0476 11.5919C-1.7261 23.5126 16.4213 39.341 29.5228 48.3858C32.5335 50.4702 36.2312 51.3398 39.8648 50.8179C43.4984 50.296 46.7956 48.4217 49.0866 45.5757L52.5169 41.3387Z" fill="#FFCACA"/>
<path d="M20.228 16.3776C25.7607 16.3776 34.6352 20.6146 44.572 27.969C45.1712 28.4127 45.6739 28.9718 46.05 29.6128C46.4261 30.2538 46.6679 30.9635 46.7609 31.6994C46.8539 32.4353 46.7962 33.1823 46.5912 33.8955C46.3862 34.6088 46.0382 35.2737 45.5679 35.8503L42.1819 40.0873C41.6529 40.7463 40.9791 41.2767 40.2121 41.6381C39.445 41.9996 38.6048 42.1825 37.7557 42.1729C36.6158 42.1799 35.5019 41.8346 34.5688 41.185C20.737 31.6352 15.4477 24.2589 15.0936 20.5049C15.0936 19.956 14.9608 19.1438 16.3551 17.7388C16.847 17.2445 17.4441 16.8657 18.1028 16.6302C18.7615 16.3947 19.4649 16.3084 20.1616 16.3776H20.228ZM20.1616 7.59626C18.2855 7.53161 16.4163 7.85327 14.6717 8.54094C12.9272 9.22862 11.3452 10.2674 10.0256 11.5918C-1.74808 23.5125 16.3993 39.3409 29.5009 48.3857C32.5133 50.465 36.2096 51.3314 39.8416 50.8097C43.4737 50.288 46.7704 48.4172 49.0646 45.5756L52.4506 41.3386C53.6572 39.8399 54.5477 38.116 55.0695 36.2692C55.5912 34.4224 55.7335 32.4904 55.4879 30.588C55.2422 28.6856 54.6136 26.8516 53.6395 25.1949C52.6653 23.5382 51.3654 22.0926 49.8171 20.9439C41.363 14.6653 29.7 7.59626 20.1616 7.59626Z" fill="white"/>
<path d="M6.88311 121.403C6.88311 121.403 -6.94874 143.664 4.67002 154.114C16.2888 164.563 26.4026 140.019 26.4026 140.019L37.8443 119.932L19.5641 102.369C14.9683 108.464 10.7342 114.82 6.88311 121.403Z" fill="white"/>
<path d="M66.7687 81.1848H62.1434C56.6921 81.1848 52.2729 85.5636 52.2729 90.965C52.2729 96.3665 56.6921 100.745 62.1434 100.745H66.7687C72.22 100.745 76.6391 96.3665 76.6391 90.965C76.6391 85.5636 72.22 81.1848 66.7687 81.1848Z" fill="#FFD2D2"/>
<path d="M176.03 81.1848H171.405C165.953 81.1848 161.534 85.5636 161.534 90.965C161.534 96.3665 165.953 100.745 171.405 100.745H176.03C181.481 100.745 185.9 96.3665 185.9 90.965C185.9 85.5636 181.481 81.1848 176.03 81.1848Z" fill="#FFD2D2"/>
</g>
<defs>
<clipPath id="clip0_453_9742">
<rect width="211.705" height="198.59" fill="white"/>
</clipPath>
</defs>
</svg>
