<svg width="385" height="181" viewBox="0 0 385 181" fill="none" xmlns="http://www.w3.org/2000/svg">
<g clip-path="url(#clip0_508_1443)">
<path d="M222.568 115.517C222.568 115.517 211.873 99.3119 220.151 91.4361C228.43 83.5603 236.479 101.338 236.479 101.338L242.357 111.417L232.283 129.243C228.781 124.857 225.537 120.274 222.568 115.517Z" fill="#EFD565"/>
<path d="M320.423 172.152L350.875 172.152C353.201 172.152 355.087 174.021 355.087 176.325C355.087 178.63 353.201 180.498 350.875 180.498L320.423 180.498C318.096 180.498 316.21 178.63 316.21 176.325C316.21 174.021 318.096 172.152 320.423 172.152Z" fill="#FFBB4D"/>
<path d="M233.884 172.154L263.47 172.154C265.797 172.154 267.683 174.022 267.683 176.327C267.683 178.631 265.797 180.5 263.47 180.5L233.884 180.5C231.557 180.5 229.671 178.631 229.671 176.327C229.671 174.022 231.557 172.154 233.884 172.154Z" fill="#FFBB4D"/>
<path d="M321.909 43.7123C304.466 38.7619 285.975 38.7619 268.533 43.7123L268.369 43.7123C260.719 45.8646 253.776 49.9829 248.243 55.651C242.71 61.3191 238.782 68.3361 236.856 75.9933C233.199 90.5781 229.509 137.703 229.509 151.656C229.509 151.656 227.68 180.534 295.082 180.534C362.484 180.534 360.394 151.656 360.394 151.656C360.394 151.656 360.394 131.513 359.871 122.778C359.046 107.08 356.861 91.4816 353.34 76.1554C351.442 68.4813 347.533 61.4418 342.011 55.75C336.488 50.0582 329.548 45.9165 321.892 43.7447L321.909 43.7123Z" fill="#F2F2F2"/>
<path d="M321.909 43.7123C304.466 38.7619 285.975 38.7619 268.533 43.7123L268.369 43.7123C260.719 45.8646 253.776 49.9829 248.243 55.651C242.71 61.3191 238.782 68.3361 236.856 75.9933C233.199 90.5781 229.509 137.703 229.509 151.656C229.509 151.656 227.68 180.534 295.082 180.534C362.484 180.534 360.394 151.656 360.394 151.656C360.394 151.656 360.394 131.513 359.871 122.778C359.046 107.08 356.861 91.4816 353.34 76.1554C351.442 68.4813 347.533 61.4418 342.011 55.75C336.488 50.0582 329.548 45.9165 321.892 43.7447L321.909 43.7123Z" fill="#FFE36C"/>
<path d="M256.154 93.8317C252.151 93.8317 248.905 90.6103 248.905 86.6366C248.905 82.6628 252.151 79.4414 256.154 79.4414C260.158 79.4414 263.404 82.6628 263.404 86.6366C263.404 90.6103 260.158 93.8317 256.154 93.8317Z" fill="black"/>
<path d="M314.364 93.8332C310.36 93.8332 307.114 90.6118 307.114 86.638C307.114 82.6643 310.36 79.4429 314.364 79.4429C318.367 79.4429 321.613 82.6643 321.613 86.638C321.613 90.6118 318.367 93.8332 314.364 93.8332Z" fill="black"/>
<path d="M368.965 126.585C368.965 126.585 379.644 142.79 371.349 150.682C363.054 158.574 355.021 140.748 355.021 140.748L349.176 130.653L359.283 112.827C362.776 117.223 366.008 121.817 368.965 126.585Z" fill="#FFE36C"/>
<path d="M278.052 167.68C278.267 167.681 278.48 167.64 278.678 167.559C278.877 167.479 279.058 167.36 279.211 167.21L286.477 159.917C286.744 159.607 286.884 159.209 286.868 158.801C286.852 158.393 286.682 158.006 286.391 157.717C286.101 157.429 285.711 157.26 285.3 157.244C284.889 157.228 284.487 157.367 284.175 157.632L276.892 164.844C276.739 164.994 276.618 165.174 276.535 165.371C276.452 165.569 276.409 165.78 276.409 165.994C276.409 166.208 276.452 166.42 276.535 166.618C276.618 166.815 276.739 166.994 276.892 167.145C277.039 167.307 277.218 167.438 277.417 167.53C277.616 167.621 277.832 167.672 278.052 167.68Z" fill="#FFBB4D"/>
<path d="M285.318 167.68C285.642 167.682 285.959 167.588 286.23 167.41C286.5 167.232 286.711 166.978 286.835 166.681C286.96 166.384 286.992 166.056 286.928 165.741C286.864 165.425 286.707 165.136 286.477 164.909L279.211 157.698C279.059 157.546 278.879 157.425 278.68 157.343C278.481 157.261 278.267 157.218 278.052 157.218C277.836 157.218 277.623 157.261 277.424 157.343C277.225 157.425 277.044 157.546 276.892 157.698C276.588 158.001 276.418 158.412 276.418 158.84C276.418 159.268 276.588 159.679 276.892 159.983L284.175 167.21C284.479 167.51 284.889 167.678 285.318 167.68Z" fill="#FFBB4D"/>
<path d="M324.408 118.01C318.203 118.01 313.174 113.019 313.174 106.861C313.174 100.704 318.203 95.7119 324.408 95.7119C330.612 95.7119 335.641 100.704 335.641 106.861C335.641 113.019 330.612 118.01 324.408 118.01Z" fill="#FFA052"/>
<path d="M246.604 118.011C240.4 118.011 235.37 113.019 235.37 106.862C235.37 100.704 240.4 95.7124 246.604 95.7124C252.808 95.7124 257.838 100.704 257.838 106.862C257.838 113.019 252.808 118.011 246.604 118.011Z" fill="#FFA052"/>
<path d="M274.361 106.683L292.322 106.683C294.782 106.674 297.138 105.7 298.876 103.972C300.614 102.244 301.592 99.9034 301.596 97.462C301.596 92.4059 288.436 89.019 283.325 89.019C278.231 89.019 265.07 92.4059 265.07 97.462C265.075 99.9062 266.055 102.249 267.796 103.977C269.538 105.706 271.898 106.679 274.361 106.683Z" fill="#FFBB4D"/>
<path d="M297.286 39.9984C297.286 39.9984 296.6 29.9349 290.314 23.3393C290.164 23.1844 289.973 23.0748 289.763 23.0233C289.553 22.9719 289.333 22.9806 289.128 23.0484C288.923 23.1163 288.741 23.2406 288.604 23.4068C288.467 23.573 288.381 23.7744 288.355 23.9875C287.688 28.707 286.225 33.2815 284.028 37.519C283.352 38.565 282.459 39.4558 281.409 40.1321C280.359 40.8084 279.175 41.2545 277.937 41.4406" fill="#FFE36C"/>
<path d="M285.759 40.439C290.725 36.9377 294.874 32.4166 297.924 27.183C298.027 26.9917 298.184 26.8339 298.375 26.7284C298.566 26.6229 298.784 26.574 299.002 26.5877C299.221 26.6013 299.431 26.6769 299.607 26.8054C299.783 26.9339 299.919 27.11 299.997 27.3126C300.769 29.948 301.191 32.6717 301.255 35.4153C301.331 36.7169 301.861 37.9516 302.755 38.9069C303.649 39.8622 304.851 40.4785 306.153 40.6496" fill="#FFE36C"/>
</g>
<path d="M211.754 114.262C211.754 114.262 222.713 97.5989 214.226 89.4018C205.739 81.2047 197.48 99.643 197.48 99.643L191.472 110.05L201.831 128.509C201.831 128.509 209.095 119.152 211.754 114.262Z" fill="#EEEEEE"/>
<path d="M175.269 180.503L188.521 180.499C189.756 180.498 190.939 180.007 191.812 179.134C192.684 178.261 193.174 177.077 193.174 175.843L193.17 165.305L170.609 165.312L170.613 175.85C170.613 177.085 171.104 178.269 171.977 179.141C172.851 180.014 174.035 180.504 175.269 180.503Z" fill="#EEEEEE"/>
<path d="M90.379 180.541L103.7 180.537C104.942 180.536 106.133 180.043 107.01 179.164C107.888 178.286 108.381 177.095 108.381 175.853L108.377 165.342L85.6917 165.35L85.6953 175.861C85.6958 177.103 86.1894 178.293 87.0678 179.171C87.9462 180.049 89.1373 180.542 90.379 180.541Z" fill="black"/>
<path d="M168.917 54.6822C168.917 54.6822 198.543 31.3547 208.86 44.1579C220.717 58.8671 182.3 75.275 182.3 75.275L168.917 54.6822Z" fill="#F6CBCA"/>
<path d="M200.002 47.0167C202.564 47.0167 203.296 47.9214 203.648 48.3565C204.56 49.489 204.505 50.1312 204.339 50.7389C203.565 53.8465 196.874 60.6762 184.741 66.7602L178.001 56.4016C184.782 51.8922 194.015 47.0306 199.988 47.0306L200.002 47.0167ZM199.988 40.332C187.151 40.332 168.913 54.6959 168.913 54.6959L182.296 75.2887C182.296 75.2887 220.712 58.8808 208.855 44.1716C206.632 41.4093 203.517 40.332 199.988 40.332Z" fill="black"/>
<path d="M179.349 47.5341C182.36 43.2246 184.663 38.4618 186.172 33.4257C186.371 32.7802 186.37 32.0898 186.17 31.4447C185.97 30.7996 185.58 30.2299 185.051 29.8099C184.522 29.3899 183.879 29.1393 183.205 29.0907C182.532 29.0422 181.859 29.1979 181.276 29.5377C176.856 32.1757 171.097 36.0705 167.029 40.4833C159.543 48.6114 179.349 47.5341 179.349 47.5341Z" fill="#F4C25D"/>
<path d="M173.005 176.416C168.196 177.66 163.31 178.582 158.379 179.178C150.838 180.093 143.248 180.531 135.652 180.49C129.052 180.519 122.455 180.203 115.888 179.544C66.9817 174.496 68.6253 150.692 68.6253 150.692C68.6253 150.692 68.6253 129.892 69.1501 120.873C69.8821 108.401 71.6499 89.9424 75.8624 72.7195C77.8099 64.7965 81.8143 57.5279 87.4708 51.6483C93.1274 45.7686 100.236 41.4862 108.077 39.2338C119.457 35.9572 131.33 34.7389 143.138 35.6359L143.172 35.6359C149.815 36.1282 156.392 37.285 162.805 39.0888L162.971 39.144C170.815 41.3588 177.936 45.6068 183.611 51.4579C189.286 57.309 193.315 64.5555 195.289 72.464C196.591 78.4219 197.57 84.4455 198.224 90.5086C200.814 111.157 202.851 140.057 202.851 150.588C202.851 150.623 203.963 168.281 173.005 176.416Z" fill="white"/>
<path d="M158.379 179.177C150.838 180.093 143.248 180.531 135.652 180.489C129.052 180.518 122.455 180.202 115.888 179.543C66.9817 174.495 68.6253 150.691 68.6253 150.691C68.6253 150.691 68.6253 129.891 69.1501 120.872C69.1501 120.872 105.819 116.487 113.395 143.661C114.01 146.012 114.939 148.27 116.157 150.374C126.288 167.458 150.099 153.826 158.192 178.59C158.27 178.78 158.333 178.977 158.379 179.177Z" fill="black"/>
<path d="M198.227 90.5299C182.944 83.3065 184.222 61.1599 165.349 61.1668C142.802 61.1668 143.14 35.6157 143.14 35.6157L143.174 35.6157C149.818 36.108 156.395 37.2647 162.807 39.0686L162.973 39.1238C170.818 41.3386 177.938 45.5865 183.613 51.4376C189.288 57.2887 193.317 64.5353 195.292 72.4439C196.594 78.4154 197.574 84.4528 198.227 90.5299Z" fill="black"/>
<path d="M175.557 153.624L175.557 167.284C175.549 170.502 174.669 173.657 173.008 176.413C163.741 178.844 151.601 180.439 135.656 180.446C129.056 180.475 122.459 180.159 115.891 179.5L115.891 153.59C115.89 152.496 115.992 151.405 116.195 150.33C116.967 146.177 119.165 142.424 122.409 139.719C125.653 137.013 129.74 135.525 133.964 135.511L157.443 135.511C162.246 135.514 166.851 137.424 170.247 140.82C173.643 144.216 175.553 148.821 175.557 153.624Z" fill="#F6CBCA"/>
<path d="M175.506 90.9572C171.403 90.9572 168.076 87.6304 168.076 83.5267C168.076 79.4229 171.403 76.0962 175.506 76.0962C179.61 76.0962 182.937 79.4229 182.937 83.5267C182.937 87.6305 179.61 90.9572 175.506 90.9572Z" fill="black"/>
<path d="M115.837 90.9845C111.733 90.9845 108.406 87.6578 108.406 83.554C108.406 79.4503 111.733 76.1235 115.837 76.1235C119.941 76.1235 123.267 79.4503 123.267 83.5541C123.267 87.6578 119.941 90.9846 115.837 90.9845Z" fill="black"/>
<path d="M170.55 102.986C170.55 94.0086 162.774 83.5326 145.648 83.5396C128.522 83.5465 121.043 94.0224 121.043 103.007C121.043 111.991 128.529 116.072 145.655 116.065C162.781 116.059 170.55 111.963 170.55 102.986Z" fill="#F6CBCA"/>
<path d="M140.717 102.442C139.306 102.442 138.162 100.887 138.162 98.9681C138.162 97.0498 139.306 95.4946 140.717 95.4946C142.129 95.4946 143.273 97.0498 143.273 98.9681C143.273 100.887 142.129 102.442 140.717 102.442Z" fill="black"/>
<path d="M155.624 102.433C154.212 102.433 153.068 100.878 153.068 98.9599C153.068 97.0415 154.212 95.4863 155.624 95.4863C157.035 95.4863 158.179 97.0415 158.179 98.9599C158.179 100.878 157.035 102.433 155.624 102.433Z" fill="black"/>
<path d="M95.2584 60.6077C96.1707 59.465 96.8439 58.1505 97.238 56.7423C97.632 55.3341 97.7387 53.8611 97.5519 52.4109C97.365 50.9606 96.8884 49.5627 96.1504 48.3004C95.4123 47.0381 94.4279 45.9371 93.2557 45.063C84.2783 38.3575 70.4669 30.4436 63.1607 37.9432C54.2593 47.0449 67.9947 59.1022 77.9044 66.0011C80.1808 67.5876 82.9756 68.2485 85.7214 67.8496C88.4673 67.4508 90.9586 66.022 92.6895 63.8534L95.2584 60.6077Z" fill="#F6CBCA"/>
<path d="M60.7682 121.653C60.7682 121.653 50.313 138.641 59.0418 146.589C67.7706 154.538 75.4703 135.858 75.4703 135.858L84.1162 120.534L70.3049 107.137C70.3049 107.137 63.2749 116.674 60.7682 121.653Z" fill="white"/>
<path d="M153.098 167.232C152.879 167.235 152.661 167.194 152.458 167.111C152.255 167.028 152.071 166.905 151.917 166.749L144.479 159.291C144.324 159.136 144.201 158.952 144.116 158.749C144.032 158.546 143.988 158.329 143.988 158.109C143.988 157.889 144.031 157.672 144.114 157.469C144.198 157.266 144.321 157.081 144.476 156.926C144.631 156.77 144.815 156.647 145.018 156.562C145.221 156.478 145.438 156.434 145.658 156.434C145.878 156.434 146.095 156.477 146.298 156.56C146.501 156.644 146.686 156.767 146.841 156.922L154.299 164.38C154.455 164.535 154.579 164.719 154.663 164.922C154.747 165.124 154.791 165.342 154.791 165.561C154.791 165.781 154.747 165.998 154.663 166.201C154.579 166.403 154.455 166.587 154.299 166.742C154.143 166.901 153.956 167.027 153.749 167.111C153.543 167.196 153.321 167.237 153.098 167.232Z" fill="#EF928F"/>
<path d="M145.64 167.238C145.309 167.236 144.987 167.136 144.713 166.951C144.439 166.767 144.226 166.506 144.1 166.2C143.974 165.895 143.941 165.559 144.005 165.235C144.068 164.911 144.226 164.613 144.459 164.379L151.91 156.921C152.23 156.638 152.646 156.488 153.073 156.501C153.5 156.514 153.906 156.689 154.208 156.991C154.51 157.294 154.685 157.699 154.698 158.126C154.712 158.553 154.562 158.969 154.279 159.289L146.827 166.747C146.511 167.06 146.085 167.236 145.64 167.238Z" fill="#EF928F"/>
<path d="M107.771 105.946L100.865 105.948C97.6841 105.949 95.1047 103.372 95.1036 100.191L95.1024 96.7932C95.1013 93.6124 97.6789 91.033 100.86 91.0319L107.765 91.0295C110.946 91.0284 113.526 93.606 113.527 96.7868L113.528 100.184C113.529 103.365 110.951 105.945 107.771 105.946Z" fill="#F7D3D2"/>
<path d="M190.536 106.108L183.63 106.108C180.449 106.108 177.871 103.529 177.871 100.349L177.871 96.951C177.871 93.7702 180.449 91.1917 183.63 91.1917L190.536 91.1917C193.717 91.1917 196.295 93.7702 196.295 96.951L196.295 100.349C196.295 103.529 193.717 106.108 190.536 106.108Z" fill="#F7D3D2"/>
<path d="M93.851 50.0377C93.851 50.0377 87.6358 41.9166 85.0807 33.464C84.8781 32.818 84.876 32.1258 85.0747 31.4786C85.2733 30.8315 85.6635 30.2597 86.1937 29.8387C86.7238 29.4177 87.3691 29.1672 88.0445 29.1204C88.7199 29.0735 89.3936 29.2324 89.9769 29.5761C94.3965 32.2071 97.9944 33.9405 102.062 38.3463C109.555 46.4743 93.851 50.0377 93.851 50.0377Z" fill="#F4C25D"/>
<path d="M70.8324 41.5919C75.0104 41.5919 81.7227 44.8099 89.2568 50.4243C89.7092 50.7584 90.0889 51.1811 90.3726 51.6667C90.6564 52.1523 90.8383 52.6906 90.9073 53.2487C90.9829 53.8116 90.9436 54.3839 90.7916 54.9311C90.6397 55.4783 90.3784 55.989 90.0234 56.4322L87.4475 59.6641C86.7796 60.5047 85.8164 61.0591 84.7541 61.2144C83.6917 61.3696 82.6102 61.1141 81.7296 60.4997C71.2744 53.2211 67.2622 47.5929 66.9929 44.7478C66.9515 44.3265 66.8962 43.6981 67.9459 42.6208C68.3225 42.2485 68.7761 41.9634 69.2749 41.7857C69.7736 41.6079 70.3053 41.5417 70.8324 41.5919ZM70.8324 34.9002C69.4133 34.851 67.9993 35.0955 66.6791 35.6184C65.3588 36.1413 64.1609 36.9312 63.1602 37.9387C54.2588 47.0404 67.9942 59.0978 77.9039 65.9966C80.1803 67.5832 82.9751 68.2441 85.721 67.8452C88.4668 67.4464 90.9581 66.0176 92.689 63.849L95.2579 60.624C96.1702 59.4813 96.8435 58.1668 97.2375 56.7586C97.6315 55.3505 97.7382 53.8774 97.5514 52.4272C97.3645 50.9769 96.8879 49.579 96.1499 48.3167C95.4118 47.0544 94.4274 45.9534 93.2552 45.0793C86.8536 40.3005 78.0281 34.914 70.8324 34.9209L70.8324 34.9002Z" fill="white"/>
<path d="M19 69.7692C11.5617 68.2308 9.16312 61.5641 8.89361 59C8.89362 64.2308 2.96454 68.7436 -2.83998e-06 69.7692C4.85106 70.9231 7.95036 76.6923 8.89362 79C8.89362 76.2308 15.6312 70.9231 19 69.7692Z" fill="white" fill-opacity="0.75"/>
<path d="M385 10.7692C377.953 9.23077 375.681 2.5641 375.426 -4.02327e-09C375.426 5.23077 369.809 9.74359 367 10.7692C371.596 11.9231 374.532 17.6923 375.426 20C375.426 17.2308 381.809 11.9231 385 10.7692Z" fill="white" fill-opacity="0.75"/>
<path d="M42 93.7692C34.9532 92.2308 32.6808 85.5641 32.4255 83C32.4255 88.2308 26.8085 92.7436 24 93.7692C28.5957 94.9231 31.5319 100.692 32.4255 103C32.4255 100.231 38.8085 94.9231 42 93.7692Z" fill="white" fill-opacity="0.75"/>
<defs>
<clipPath id="clip0_508_1443">
<rect width="157.5" height="157.5" fill="white" transform="matrix(-1 0 -1.3642e-06 1 374.5 23)"/>
</clipPath>
</defs>
</svg>
