<svg width="200" height="122" viewBox="0 0 200 122" fill="none" xmlns="http://www.w3.org/2000/svg">
<g clip-path="url(#clip0_453_9771)">
<path d="M193.157 122.61C193.157 122.61 206.381 145.277 194.678 155.476C182.975 165.675 173.365 140.849 173.365 140.849L166.202 126.729L181.079 103.203C185.483 109.429 189.516 115.909 193.157 122.61Z" fill="#4B9B3A"/>
<path d="M16.4195 103.401C16.4195 103.401 -10.0284 195.744 107.863 188.849C208.056 182.989 181.057 103.401 181.057 103.401C185.813 98.8902 189.426 93.3126 191.598 87.1294C193.769 80.9463 194.437 74.3353 193.545 67.8432C192.654 61.3511 190.228 55.1644 186.47 49.7948C182.712 44.4252 177.729 40.0269 171.933 36.9637C173.894 29.8808 173.109 22.3192 169.736 15.7891C166.363 9.25896 160.649 4.2411 153.736 1.73763C146.823 -0.765836 139.219 -0.570619 132.443 2.28431C125.668 5.13923 120.219 10.4437 117.186 17.1383H86.8149C84.0411 11.0728 79.2742 6.13866 73.3064 3.15578C67.3385 0.172898 60.5291 -0.679043 54.0097 0.741494C47.4903 2.16203 41.6536 5.76953 37.4695 10.9645C33.2854 16.1594 31.0059 22.6289 31.0099 29.2979C31.0286 31.0359 31.2057 32.7686 31.5388 34.4745C24.8195 36.7747 18.8073 40.7679 14.0828 46.0682C9.35822 51.3686 6.08105 57.7971 4.56777 64.7328C3.05449 71.6685 3.35626 78.877 5.44391 85.6622C7.53155 92.4473 11.3346 98.5797 16.4856 103.467L16.4195 103.401Z" fill="#49B236"/>
<path d="M153.948 134.131V177.703C142.928 183.562 127.897 187.681 107.863 188.849C85.8229 190.149 68.8301 187.968 55.7605 183.584V134.131C55.7779 127.826 58.2913 121.785 62.7515 117.327C67.2116 112.87 73.2559 110.358 79.5635 110.34H130.255C136.544 110.386 142.56 112.911 146.996 117.366C151.433 121.821 153.931 127.845 153.948 134.131Z" fill="#9CD43D"/>
<path d="M144.03 51.4141C149.435 51.4141 153.816 47.0352 153.816 41.6336C153.816 36.2319 149.435 31.853 144.03 31.853C138.626 31.853 134.245 36.2319 134.245 41.6336C134.245 47.0352 138.626 51.4141 144.03 51.4141Z" fill="black"/>
<path d="M65.5462 51.4141C70.9507 51.4141 75.3319 47.0352 75.3319 41.6336C75.3319 36.2319 70.9507 31.853 65.5462 31.853C60.1417 31.853 55.7605 36.2319 55.7605 41.6336C55.7605 47.0352 60.1417 51.4141 65.5462 51.4141Z" fill="black"/>
<path d="M5.42131 123.424C5.42131 123.424 -6.76675 146.686 5.42131 156.335C17.6094 165.983 26.0286 140.739 26.0286 140.739L32.6405 126.31L16.6837 103.489C12.5495 109.912 8.78918 116.568 5.42131 123.424Z" fill="#49B236"/>
<path d="M95.7625 51.4585H118.64C119.749 51.4575 120.84 51.7351 121.813 52.2657C122.786 52.7964 123.61 53.5631 124.209 54.4954C124.808 55.4277 125.163 56.4956 125.242 57.6008C125.32 58.7061 125.119 59.8132 124.657 60.8205C122.276 65.909 117.34 71.1518 107.201 71.1518C97.0629 71.1518 92.1479 65.909 89.7456 60.8205C89.2837 59.8132 89.0826 58.7061 89.1608 57.6008C89.239 56.4956 89.594 55.4277 90.1931 54.4954C90.7923 53.5631 91.6164 52.7964 92.5896 52.2657C93.5628 51.7351 94.6539 51.4575 95.7625 51.4585Z" fill="white"/>
<path d="M167.899 84.1486C177.43 84.1486 185.157 76.8208 185.157 67.7816C185.157 58.7423 177.43 51.4146 167.899 51.4146C158.368 51.4146 150.642 58.7423 150.642 67.7816C150.642 76.8208 158.368 84.1486 167.899 84.1486Z" fill="#9CD43D"/>
<path d="M46.5033 84.1486C56.0342 84.1486 63.7606 76.8208 63.7606 67.7816C63.7606 58.7423 56.0342 51.4146 46.5033 51.4146C36.9724 51.4146 29.2461 58.7423 29.2461 67.7816C29.2461 76.8208 36.9724 84.1486 46.5033 84.1486Z" fill="#9CD43D"/>
</g>
<defs>
<clipPath id="clip0_453_9771">
<rect width="199.527" height="189.223" fill="white"/>
</clipPath>
</defs>
</svg>
