<svg width="50" height="51" viewBox="0 0 50 51" fill="none" xmlns="http://www.w3.org/2000/svg">
<path d="M15.0575 25.3632L15.0575 18.1728L-2.25312e-07 33.2559L3.5574 36.8932L15.0575 25.3632ZM49.3685 20.8692C48.2528 15.2236 44.0359 11.0104 43.5518 10.5399L33.2023 -1.59475e-07L27.2874 5.92651L26.8664 6.34783L26.8664 13.5383L33.1743 7.22557L39.0611 13.2153L39.9593 14.1281L40.0224 14.1913C40.0365 14.2054 40.4153 14.5775 40.9556 15.2236C42.0642 16.5507 43.8254 19.0224 44.3867 21.8593C45.2287 26.1005 45.6497 31.037 40.9556 37.0618L40.9556 44.491C41.3977 44.1048 41.6783 43.8309 41.7766 43.7326C45.9725 39.6037 48.5054 35.4327 49.5088 30.9737C50.3859 27.1047 49.9298 23.692 49.3685 20.8692ZM18.0255 43.0585L17.8641 42.9813L17.787 42.9602C17.6747 42.904 17.2537 42.6863 16.4819 42.1246C16.096 41.8437 15.6259 41.4856 15.0645 41.0151C14.2085 40.3059 13.142 39.3509 11.8439 38.087L8.93206 35.1097L5.33959 38.7049L8.2304 41.6611L8.27252 41.7033C12.7491 46.085 15.0575 47.3349 15.8995 47.686C18.9728 49.1606 21.8566 49.8628 24.4878 50.0594C25.9472 50.1717 27.3225 50.1296 28.6135 49.9821C28.7258 49.9681 28.831 49.954 28.9433 49.94L28.9433 44.7859C25.863 45.3125 22.1583 45.0668 18.0255 43.0585Z" fill="#173A52"/>
<path d="M24.3214 8.88867L24.3214 39.5815L17.5925 39.5815L17.5925 15.6297L18.2731 14.9486L18.631 14.5905L20.6658 12.5541L22.041 11.1708L22.4901 10.7214L23.8724 9.3451L24.3214 8.88867Z" fill="#173A52"/>
<path d="M38.4184 15.7568L38.4184 46.3865C38.3903 46.4076 38.3623 46.4286 38.3272 46.4427C38.0184 46.6393 37.6887 46.8429 37.3448 47.0466C37.2326 47.1098 37.1133 47.18 36.994 47.2432C36.6783 47.4187 36.3555 47.5873 36.0187 47.7558C35.703 47.9103 35.3802 48.0647 35.0434 48.2122C34.861 48.2895 34.6786 48.3737 34.4891 48.451C34.2435 48.5493 33.9909 48.6476 33.7313 48.7459C33.5278 48.8231 33.3244 48.8933 33.1139 48.9636C32.6999 49.104 32.2649 49.2374 31.8088 49.3568C31.7035 49.3849 31.5913 49.413 31.479 49.441L31.479 15.7568L38.4184 15.7568Z" fill="#173A52"/>
<path d="M31.4729 23.8398L24.323 23.8398L24.323 30.7916L31.4729 30.7916L31.4729 23.8398Z" fill="#173A52"/>
</svg>
