<svg width="353" height="389" viewBox="0 0 353 389" fill="none" xmlns="http://www.w3.org/2000/svg">
<path d="M106.021 196.732L106.021 141.095L-1.58644e-06 257.803L25.0479 285.948L106.021 196.732ZM347.608 161.959C339.752 118.275 310.06 85.6744 306.652 82.0341L233.78 0.479491L192.133 46.337L189.169 49.597L189.169 105.234L233.583 56.3887L275.033 102.735L281.357 109.799L281.801 110.288C281.9 110.396 284.568 113.276 288.372 118.275C296.178 128.544 308.578 147.669 312.531 169.62C318.459 202.437 321.423 240.634 288.372 287.252L288.372 344.737C291.484 341.748 293.461 339.629 294.152 338.869C323.696 306.921 341.531 274.646 348.596 240.145C354.771 210.207 351.56 183.801 347.608 161.959ZM126.919 333.653L125.783 333.055L125.24 332.892C124.449 332.457 121.485 330.773 116.05 326.426C113.333 324.253 110.023 321.482 106.071 317.842C100.043 312.354 92.534 304.965 83.3942 295.184L62.8914 272.147L37.5965 299.966L57.951 322.84L58.2475 323.166C89.7674 357.07 106.021 366.742 111.95 369.458C133.589 380.868 153.894 386.302 172.42 387.823C182.697 388.692 192.38 388.366 201.47 387.225C202.261 387.117 203.002 387.008 203.792 386.899L203.792 347.019C182.104 351.094 156.018 349.192 126.919 333.653Z" fill="white" fill-opacity="0.5"/>
<path d="M171.25 69.2793L171.25 306.771L123.871 306.771L123.871 121.439L128.663 116.169L131.183 113.398L145.51 97.6414L155.193 86.9377L158.355 83.4603L168.088 72.811L171.25 69.2793Z" fill="white" fill-opacity="0.5"/>
<path d="M270.488 122.412L270.488 359.415C270.29 359.578 270.093 359.741 269.846 359.849C267.672 361.371 265.35 362.946 262.929 364.522C262.138 365.011 261.298 365.554 260.459 366.043C258.235 367.402 255.963 368.706 253.591 370.01C251.368 371.205 249.096 372.4 246.724 373.542C245.44 374.139 244.155 374.791 242.821 375.389C241.092 376.149 239.314 376.91 237.486 377.671C236.053 378.269 234.62 378.812 233.138 379.355C230.223 380.442 227.16 381.474 223.949 382.398C223.208 382.615 222.417 382.833 221.627 383.05L221.627 122.412L270.488 122.412Z" fill="white" fill-opacity="0.5"/>
<path d="M221.628 185.101L171.254 185.101L171.255 238.948L221.628 238.948L221.628 185.101Z" fill="white" fill-opacity="0.5"/>
</svg>
