<svg width="43" height="42" viewBox="0 0 43 42" fill="none" xmlns="http://www.w3.org/2000/svg">
<g id="Group">
<path id="Vector" d="M35.0107 24.3008C31.049 24.3008 27.8281 27.5216 27.8281 31.4834C27.8281 35.1392 31.4678 39.2616 35.0107 41.999C38.5537 39.2613 42.1933 35.1385 42.1933 31.4834C42.1933 27.5216 38.9725 24.3008 35.0107 24.3008ZM35.0107 33.6026C33.758 33.6026 32.7418 32.5864 32.7418 31.3337C32.7418 30.0809 33.758 29.0647 35.0107 29.0647C36.2635 29.0647 37.2797 30.0809 37.2797 31.3337C37.2783 32.5868 36.2638 33.6026 35.0107 33.6026Z" fill="#173A52"/>
<path id="Vector_2" d="M1.7722 1.41429C0.646376 2.4388 0.000732422 3.90254 0.000732422 5.42739V27.3872C0.979965 26.5482 2.16046 25.9331 3.45349 25.6287C4.0991 25.4806 4.74828 25.408 5.38601 25.408C7.41524 25.408 9.35098 26.1327 10.855 27.4225V5.71759C10.855 5.54865 10.8406 5.37933 10.8277 5.20859C10.6023 2.49819 8.51347 0.270921 5.96587 0.0261354C4.41332 -0.123404 2.91718 0.372663 1.77231 1.41442L1.7722 1.41429Z" fill="#173A52"/>
<path id="Vector_3" d="M24.928 31.4813C24.928 25.9221 29.4516 21.4 35.0112 21.4C37.8215 21.4 40.3626 22.5579 42.1938 24.4181V8.48777C42.1938 7.39425 41.3386 6.53906 40.2451 6.53906L13.753 6.53942V30.4704C13.753 31.3288 13.1685 32.0646 12.3295 32.2645C11.5114 32.4593 10.6627 32.0711 10.2827 31.3144C9.32611 29.4028 7.04888 27.7762 4.10842 28.4527C2.18704 28.9052 0.594552 30.5059 0.158171 32.4338C0.0532082 32.881 0 33.3174 0 33.7395C0 36.7317 2.43322 39.1668 5.42549 39.1668H28.0148C26.2979 36.9475 24.9276 34.2999 24.9276 31.4817L24.928 31.4813Z" fill="#173A52"/>
</g>
</svg>
