<svg width="50" height="50" viewBox="0 0 50 50" fill="none" xmlns="http://www.w3.org/2000/svg">
<g id="Frame 1067">
<g id="Group 1082">
<path id="Vector 337" d="M11.5568 32.4065C7.9933 28.1303 7.69634 18.1525 7.9933 13.6981C10.0732 12.8072 14.7674 10.8473 16.9055 10.1346C19.0436 9.42188 22.5477 5.68019 24.0325 3.89844C24.6265 4.78932 26.527 7.28378 29.3778 10.1346C32.2286 12.9854 37.6927 13.6981 40.0684 13.6981C40.9592 21.716 36.5048 29.7339 35.614 33.2974C34.9013 36.1482 27.5961 41.0184 24.0325 43.0971C21.3588 41.3153 15.1203 36.6828 11.5568 32.4065Z" fill="#173A52"/>
<path id="Union" fill-rule="evenodd" clip-rule="evenodd" d="M23.7567 2.42439C23.0629 2.29191 22.3509 2.66623 22.0819 3.3473C21.4736 4.88742 19.8074 7.09322 17.288 8.92018C14.7964 10.727 11.5958 12.0707 7.99414 12.0707H6.49414V13.5707C6.49414 27.1547 11.0698 38.5124 23.3784 44.4481C23.6794 44.5933 24.0048 44.6289 24.3097 44.5708C24.6145 44.6289 24.94 44.5933 25.241 44.4481C37.5887 38.4935 41.5723 27.0945 41.5723 13.5707V12.0707H40.0723C36.4627 12.0707 33.1139 10.7212 30.473 8.89972C27.7971 7.05407 26.0248 4.84916 25.4316 3.3473C25.1626 2.66623 24.4505 2.29191 23.7567 2.42439ZM23.7731 6.51488C22.68 8.17111 21.0529 9.89579 19.0492 11.3488C16.4993 13.1979 13.2389 14.681 9.5122 15.0049C9.81932 27.0569 14.0713 36.4533 24.3096 41.5634C34.501 36.4708 38.2856 27.11 38.5564 15.0056C34.8081 14.6838 31.4329 13.2062 28.7697 11.3693C26.6716 9.92218 24.929 8.19105 23.7731 6.51488Z" fill="#173A52"/>
<path id="Vector 336" d="M18.6904 24.4273L23.1448 28.8817L31.1627 19.082" stroke="#FCFFFD" stroke-width="4" stroke-linecap="square"/>
</g>
</g>
</svg>
