<svg width="37" height="37" viewBox="0 0 37 37" fill="none" xmlns="http://www.w3.org/2000/svg">
<path d="M11.248 18.8115L11.248 13.6958L0.535156 24.4268L3.0661 27.0146L11.248 18.8115ZM35.6588 15.6142C34.865 11.5975 31.8649 8.60004 31.5204 8.26532L24.1572 0.766601L19.949 4.98307L19.6495 5.28282L19.6495 10.3985L24.1373 5.90729L28.3255 10.1687L28.9645 10.8182L29.0094 10.8631C29.0194 10.8731 29.289 11.1379 29.6734 11.5975C30.4621 12.5417 31.7151 14.3003 32.1144 16.3186C32.7135 19.336 33.013 22.8481 29.6734 27.1345L29.6734 32.4201C29.9879 32.1453 30.1876 31.9505 30.2574 31.8805C33.2426 28.943 35.0448 25.9755 35.7586 22.8031C36.3826 20.0504 36.0581 17.6225 35.6588 15.6142ZM13.3596 31.4009L13.2447 31.346L13.1898 31.331C13.11 31.291 12.8104 31.1362 12.2613 30.7365C11.9868 30.5367 11.6523 30.2819 11.2529 29.9471C10.6439 29.4426 9.88515 28.7631 8.96163 27.8639L6.88994 25.7457L4.33405 28.3035L6.39075 30.4068L6.42071 30.4367C9.6056 33.5541 11.248 34.4434 11.847 34.6932C14.0335 35.7423 16.0852 36.2419 17.9572 36.3818C18.9955 36.4617 19.9739 36.4317 20.8925 36.3268C20.9723 36.3168 21.0472 36.3068 21.1271 36.2968L21.1271 32.6299C18.9356 33.0046 16.2998 32.8297 13.3596 31.4009Z" fill="#005271"/>
<path d="M11.248 18.8115L11.248 13.6958L0.535156 24.4268L3.0661 27.0146L11.248 18.8115ZM35.6588 15.6142C34.865 11.5975 31.8649 8.60004 31.5204 8.26532L24.1572 0.766601L19.949 4.98307L19.6495 5.28282L19.6495 10.3985L24.1373 5.90729L28.3255 10.1687L28.9645 10.8182L29.0094 10.8631C29.0194 10.8731 29.289 11.1379 29.6734 11.5975C30.4621 12.5417 31.7151 14.3003 32.1144 16.3186C32.7135 19.336 33.013 22.8481 29.6734 27.1345L29.6734 32.4201C29.9879 32.1453 30.1876 31.9505 30.2574 31.8805C33.2426 28.943 35.0448 25.9755 35.7586 22.8031C36.3826 20.0504 36.0581 17.6225 35.6588 15.6142ZM13.3596 31.4009L13.2447 31.346L13.1898 31.331C13.11 31.291 12.8104 31.1362 12.2613 30.7365C11.9868 30.5367 11.6523 30.2819 11.2529 29.9471C10.6439 29.4426 9.88515 28.7631 8.96163 27.8639L6.88994 25.7457L4.33405 28.3035L6.39075 30.4068L6.42071 30.4367C9.6056 33.5541 11.248 34.4434 11.847 34.6932C14.0335 35.7423 16.0852 36.2419 17.9572 36.3818C18.9955 36.4617 19.9739 36.4317 20.8925 36.3268C20.9723 36.3168 21.0472 36.3068 21.1271 36.2968L21.1271 32.6299C18.9356 33.0046 16.2998 32.8297 13.3596 31.4009Z" fill="black" fill-opacity="0.2"/>
<path d="M11.248 18.8115L11.248 13.6958L0.535156 24.4268L3.0661 27.0146L11.248 18.8115ZM35.6588 15.6142C34.865 11.5975 31.8649 8.60004 31.5204 8.26532L24.1572 0.766601L19.949 4.98307L19.6495 5.28282L19.6495 10.3985L24.1373 5.90729L28.3255 10.1687L28.9645 10.8182L29.0094 10.8631C29.0194 10.8731 29.289 11.1379 29.6734 11.5975C30.4621 12.5417 31.7151 14.3003 32.1144 16.3186C32.7135 19.336 33.013 22.8481 29.6734 27.1345L29.6734 32.4201C29.9879 32.1453 30.1876 31.9505 30.2574 31.8805C33.2426 28.943 35.0448 25.9755 35.7586 22.8031C36.3826 20.0504 36.0581 17.6225 35.6588 15.6142ZM13.3596 31.4009L13.2447 31.346L13.1898 31.331C13.11 31.291 12.8104 31.1362 12.2613 30.7365C11.9868 30.5367 11.6523 30.2819 11.2529 29.9471C10.6439 29.4426 9.88515 28.7631 8.96163 27.8639L6.88994 25.7457L4.33405 28.3035L6.39075 30.4068L6.42071 30.4367C9.6056 33.5541 11.248 34.4434 11.847 34.6932C14.0335 35.7423 16.0852 36.2419 17.9572 36.3818C18.9955 36.4617 19.9739 36.4317 20.8925 36.3268C20.9723 36.3168 21.0472 36.3068 21.1271 36.2968L21.1271 32.6299C18.9356 33.0046 16.2998 32.8297 13.3596 31.4009Z" fill="black" fill-opacity="0.2"/>
<path d="M17.8397 7.09058L17.8397 28.9273L13.0524 28.9273L13.0524 11.8866L13.5366 11.402L13.7912 11.1472L15.2389 9.69839L16.2173 8.71422L16.5368 8.39448L17.5202 7.4153L17.8397 7.09058Z" fill="#005271"/>
<path d="M17.8397 7.09058L17.8397 28.9273L13.0524 28.9273L13.0524 11.8866L13.5366 11.402L13.7912 11.1472L15.2389 9.69839L16.2173 8.71422L16.5368 8.39448L17.5202 7.4153L17.8397 7.09058Z" fill="black" fill-opacity="0.2"/>
<path d="M17.8397 7.09058L17.8397 28.9273L13.0524 28.9273L13.0524 11.8866L13.5366 11.402L13.7912 11.1472L15.2389 9.69839L16.2173 8.71422L16.5368 8.39448L17.5202 7.4153L17.8397 7.09058Z" fill="black" fill-opacity="0.2"/>
<path d="M27.8693 11.9771L27.8693 33.7688C27.8493 33.7838 27.8293 33.7988 27.8044 33.8088C27.5847 33.9486 27.3501 34.0935 27.1055 34.2384C27.0256 34.2834 26.9408 34.3333 26.8559 34.3783C26.6312 34.5032 26.4016 34.6231 26.162 34.743C25.9374 34.8529 25.7077 34.9628 25.4681 35.0677C25.3383 35.1227 25.2085 35.1826 25.0738 35.2376C24.899 35.3075 24.7193 35.3774 24.5346 35.4474C24.3898 35.5023 24.2451 35.5523 24.0953 35.6022C23.8008 35.7022 23.4913 35.7971 23.1668 35.882C23.0919 35.902 23.0121 35.922 22.9322 35.942L22.9322 11.9771L27.8693 11.9771Z" fill="#005271"/>
<path d="M27.8693 11.9771L27.8693 33.7688C27.8493 33.7838 27.8293 33.7988 27.8044 33.8088C27.5847 33.9486 27.3501 34.0935 27.1055 34.2384C27.0256 34.2834 26.9408 34.3333 26.8559 34.3783C26.6312 34.5032 26.4016 34.6231 26.162 34.743C25.9374 34.8529 25.7077 34.9628 25.4681 35.0677C25.3383 35.1227 25.2085 35.1826 25.0738 35.2376C24.899 35.3075 24.7193 35.3774 24.5346 35.4474C24.3898 35.5023 24.2451 35.5523 24.0953 35.6022C23.8008 35.7022 23.4913 35.7971 23.1668 35.882C23.0919 35.902 23.0121 35.922 22.9322 35.942L22.9322 11.9771L27.8693 11.9771Z" fill="black" fill-opacity="0.2"/>
<path d="M27.8693 11.9771L27.8693 33.7688C27.8493 33.7838 27.8293 33.7988 27.8044 33.8088C27.5847 33.9486 27.3501 34.0935 27.1055 34.2384C27.0256 34.2834 26.9408 34.3333 26.8559 34.3783C26.6312 34.5032 26.4016 34.6231 26.162 34.743C25.9374 34.8529 25.7077 34.9628 25.4681 35.0677C25.3383 35.1227 25.2085 35.1826 25.0738 35.2376C24.899 35.3075 24.7193 35.3774 24.5346 35.4474C24.3898 35.5023 24.2451 35.5523 24.0953 35.6022C23.8008 35.7022 23.4913 35.7971 23.1668 35.882C23.0919 35.902 23.0121 35.922 22.9322 35.942L22.9322 11.9771L27.8693 11.9771Z" fill="black" fill-opacity="0.2"/>
<path d="M22.9277 17.7278L17.8408 17.7278L17.8408 22.6736L22.9277 22.6736L22.9277 17.7278Z" fill="#005271"/>
<path d="M22.9277 17.7278L17.8408 17.7278L17.8408 22.6736L22.9277 22.6736L22.9277 17.7278Z" fill="black" fill-opacity="0.2"/>
<path d="M22.9277 17.7278L17.8408 17.7278L17.8408 22.6736L22.9277 22.6736L22.9277 17.7278Z" fill="black" fill-opacity="0.2"/>
</svg>
